<?xml version="1.0" encoding="utf-8"?>
<!-- Generator: Adobe Illustrator 23.0.1, SVG Export Plug-In . SVG Version: 6.00 Build 0)  -->
<svg version="1.1" id="Layer_1" xmlns="http://www.w3.org/2000/svg" xmlns:xlink="http://www.w3.org/1999/xlink" x="0px" y="0px"
	 viewBox="0 0 512 512" style="enable-background:new 0 0 512 512;" xml:space="preserve">
<style type="text/css">
	.st0{fill-rule:evenodd;clip-rule:evenodd;fill:#1B1B1B;}
</style>
<path class="st0" d="M422,456H90.8c-18.6,0-34.7-14.7-34.7-33.4v-192c0-2.2,1.2-3.9,2.7-5.3c0.1-0.1,0.1-0.3,0.2-0.4
	c0.1-0.2,0.3-0.2,0.5-0.4c0.1-0.1,0.2-0.3,0.4-0.5l47-40.8v-69c0-4.6,3.7-8.3,8.3-8.3h80.6L251,58c3.1-2.7,7.8-2.7,10.9,0l55.2,48
	h80.6c4.6,0,8.3,3.7,8.3,8.3v69l47,40.8c0.1,0.1,0.2,0.3,0.3,0.4c0.2,0.2,0.4,0.2,0.5,0.4c0.4,0.4,0.6,1,0.8,1.5
	c0.2,0.3,0.4,0.6,0.5,0.9c0.5,1.1,0.7,2.3,0.7,3.4c0,0.1,0.1,0.2,0.1,0.3v191.2C455.8,440.8,440.7,456,422,456z M90.8,439.3H422
	c1.7,0,3.4-0.3,5-0.8L260.6,290.7c-2.1-1.8-6.3-1.8-8.4,0.1L85.9,438.6C87.5,439,89.1,439.3,90.8,439.3z M72.9,422.6
	c0,1.6,0.3,3.1,0.8,4.6l100.9-89.7L72.9,248.1V422.6z M78,230.5l28.9,25.4v-50.5L78,230.5z M256.4,75.4L221.2,106h70.5L256.4,75.4z
	 M122.9,122.1V270l64.1,56.4l54.2-48.2c8.6-7.4,21.8-7.4,30.3-0.1l54.1,48.1l64.4-56.5v-79.6c-0.7-1.9-0.8-4.1,0-6v-62H122.9z
	 M406,205.4v50.4l28.9-25.3L406,205.4z M440.1,248l-101.9,89.4l101.1,89.9c0.5-1.5,0.8-3,0.8-4.6V248z"/>
</svg>
