<?xml version="1.0" encoding="utf-8"?>
<!-- Generator: Adobe Illustrator 22.1.0, SVG Export Plug-In . SVG Version: 6.00 Build 0)  -->
<svg version="1.1" id="Layer_1" xmlns="http://www.w3.org/2000/svg" xmlns:xlink="http://www.w3.org/1999/xlink" x="0px" y="0px"
	 viewBox="0 0 512 512" style="enable-background:new 0 0 512 512;" xml:space="preserve">
<g>
	<path d="M123.5,52.9c-2.7-7.8-13.8-7.8-16.6,0L57.2,206.6h116C173.1,206.6,123.5,52.9,123.5,52.9z M31.8,283.9
		c-2.3,7,0.3,14.9,6.2,19.3l217.9,161.7L57.1,206.6L31.8,283.9z M173.1,206.6L256,464.9l82.9-258.4H173.1z M480.2,283.9l-25.3-77.3
		L256,464.9l217.9-161.7C479.9,298.7,482.4,290.9,480.2,283.9z M405.2,52.9c-2.7-7.8-13.8-7.8-16.6,0l-49.7,153.6h116L405.2,52.9z"
		/>
</g>
</svg>
