<?xml version="1.0" encoding="utf-8"?>
<!-- Generator: Adobe Illustrator 22.1.0, SVG Export Plug-In . SVG Version: 6.00 Build 0)  -->
<svg version="1.1" id="Layer_1" xmlns="http://www.w3.org/2000/svg" xmlns:xlink="http://www.w3.org/1999/xlink" x="0px" y="0px"
	 viewBox="0 0 512 512" style="enable-background:new 0 0 512 512;" xml:space="preserve">
<g>
	<path d="M481,116.4c-16.5,7.4-34.4,12.3-53,14.5c19.1-11.4,33.7-29.5,40.6-51.1C450.8,90.4,431,98.2,410,102.3
		c-16.9-17.9-40.9-29.1-67.4-29.1c-51,0-92.3,41.3-92.3,92.3c0,7.2,0.8,14.2,2.4,21C176,182.6,108,145.9,62.5,90
		C54.6,103.6,50,119.5,50,136.4c0,32,16.3,60.3,41,76.8c-15.1-0.4-29.4-4.7-41.8-11.5c0,0.4,0,0.8,0,1.2c0,44.7,31.8,82.1,74.1,90.5
		c-7.7,2.1-15.9,3.3-24.4,3.3c-6,0-11.7-0.6-17.4-1.7c11.8,36.6,45.9,63.3,86.2,64.1c-31.6,24.8-71.4,39.5-114.7,39.5
		c-7.5,0-14.8-0.4-22-1.3c40.9,26.3,89.4,41.5,141.5,41.5c169.7,0,262.6-140.7,262.6-262.6c0-4-0.1-8-0.3-12
		C453,151.3,468.6,135,481,116.4L481,116.4z"/>
</g>
</svg>
